<svg xmlns="http://www.w3.org/2000/svg" xmlns:xlink="http://www.w3.org/1999/xlink" width="502" height="102"><g fill-rule="nonzero"><g fill="#fff"><path d="M136 23.6c-2.9 0-4.6 1.2-5.9 3.9l-.7 1.6v-4.6c0-.2-.2-.4-.4-.4h-5.4c-.2 0-.4.2-.4.4v26.9c0 .2.2.4.4.4h5.4c.2 0 .4-.2.4-.4V34.6c1.1-3.6 3.1-5.4 6-5.4 1 0 2.2.3 3.2.7h.3c.1-.1.2-.2.2-.3l.7-4.8c0-.2-.1-.3-.2-.4-.9-.5-2.3-.8-3.6-.8m16.6 4.8c3.2 0 5 1.8 5 4.9 0 .5-.1 1-.2 1.5l-.1.3h-10.7v-.4c.3-3.9 2.6-6.3 6-6.3m9.9 11.1c.4-1.6.6-3.4.6-5.1 0-3.3-1-11-10.5-11-7.4 0-12.3 5.9-12.3 14.7 0 9.2 4.5 14.5 12.3 14.5 4 0 7.3-1 9.9-3 .1-.1.2-.3.1-.5l-1.9-3.8c0-.1-.1-.2-.3-.2-.1 0-.2 0-.3.1-2.1 1.5-4.2 2.3-6.5 2.3-4.5 0-7.1-2.5-7.4-7.2v-.4h15.9l.4-.4"/><use xlink:href="#B"/><path d="M202.3 46.8c-.1-.1-.2-.1-.3 0-.6.3-1.2.4-1.8.4-2.1 0-2.4-1.7-2.4-3.1V14.3c0-.2-.2-.4-.4-.4h-5.3c-.2 0-.4.2-.4.4v31.5c0 4.5 1.8 6.4 5.9 6.4 2.1 0 3.8-.5 4.9-1 .1-.1.2-.2.2-.4l-.2-3.8c-.1 0-.1-.1-.2-.2m13.3-18.4c3.2 0 5 1.8 5 4.9 0 .5-.1 1-.2 1.5l-.1.3h-10.7v-.4c.3-3.9 2.5-6.3 6-6.3m9.8 11.1c.4-1.6.6-3.4.6-5.1 0-3.3-1-11-10.5-11-7.4 0-12.3 5.9-12.3 14.7 0 9.2 4.5 14.5 12.3 14.5 4 0 7.3-1 9.9-3 .1-.1.2-.3.1-.5l-1.9-3.8c-.1-.1-.1-.2-.3-.2-.1 0-.2 0-.3.1-2.1 1.5-4.2 2.3-6.5 2.3-4.5 0-7.1-2.5-7.4-7.2v-.4H225c.3-.2.4-.3.4-.4m15.6-3.7l-2.9-1c-2.1-.7-3.4-1.5-3.4-3.1 0-1.9 1.4-3 3.9-3 1.9 0 4.1.5 6.4 1.5h.3c.1 0 .2-.1.2-.2l1.2-4.4c.1-.2 0-.4-.2-.5-2-.8-5.4-1.6-8.3-1.6-5.9 0-9.8 3.3-9.8 8.4 0 3.7 2.1 6.1 6.5 7.5l2.9 1c1.7.6 3.5 1.3 3.5 3.6 0 2-1.7 3.3-4.5 3.3-2.7 0-5.5-1.2-7-2-.1-.1-.2-.1-.3 0-.1 0-.2.1-.2.3l-1 4.5c0 .2 0 .3.2.4 1.9.9 5.1 1.8 8.6 1.8 5.9 0 10.3-3.8 10.3-8.8 0-3.9-1.9-6.2-6.4-7.7m26.5 10.1c0-.1-.1-.2-.2-.2h-.3c-1.4.8-3 1.3-4.3 1.3-2.4 0-3.6-1.4-3.6-4.2v-14h8.3c.2 0 .4-.2.4-.4v-3.9c0-.2-.2-.4-.4-.4H259v-6.8c0-.2-.2-.4-.4-.4h-4.2c-.2 0-.4.1-.4.3l-.7 6.9H249c-.2 0-.4.2-.4.4v3.9c0 .2.2.4.4.4h3.9v14.9c0 7.1 4.3 8.6 8 8.6 3.3 0 5.4-.8 7.5-2 .2-.1.2-.3.2-.4l-1.1-4z"/><use xlink:href="#B" x="104.5"/><path d="M312.3 45.9c0-.1-.1-.2-.2-.2h-.3c-1.4.8-3 1.3-4.3 1.3-2.4 0-3.6-1.4-3.6-4.2v-14h8.3c.2 0 .4-.2.4-.4v-3.9c0-.2-.2-.4-.4-.4h-8.3v-6.8c0-.2-.2-.4-.4-.4h-4.2c-.2 0-.4.1-.4.3l-.7 6.9H294c-.2 0-.4.2-.4.4v3.9c0 .2.2.4.4.4h3.9v14.9c0 7.1 4.3 8.6 8 8.6 3.3 0 5.4-.8 7.5-2 .2-.1.2-.3.2-.4l-1.3-4zM327 28.4c3.2 0 5 1.8 5 4.9 0 .5-.1 1-.2 1.5l-.1.3H321v-.4c.4-3.9 2.6-6.3 6-6.3m9.9 11.1c.4-1.6.6-3.4.6-5.1 0-3.3-1-11-10.5-11-7.4 0-12.3 5.9-12.3 14.7 0 9.2 4.5 14.5 12.3 14.5 4 0 7.3-1 9.9-3 .1-.1.2-.3.1-.5l-1.9-3.8c0-.1-.1-.2-.3-.2-.1 0-.2 0-.3.1-2.1 1.5-4.2 2.3-6.5 2.3-4.5 0-7.1-2.5-7.4-7.2v-.4h15.9c.2-.2.4-.3.4-.4"/></g><path d="M360.6 28.9c3 0 4.8 1.3 6 2.4.1.1.2.1.3.1s.2-.1.3-.2l2.3-3.9c.1-.2.1-.4-.1-.5-2.6-2.4-5.4-3.5-8.9-3.5-7.9 0-13.2 5.8-13.2 14.6 0 8.7 5.3 14.6 13.2 14.6 3.4 0 6.2-1.1 8.8-3.5.1-.1.2-.3.1-.5l-2.3-3.9c-.1-.1-.2-.2-.3-.2s-.2 0-.3.1c-1.2 1.1-3 2.4-5.9 2.4-4.4 0-7.2-3.6-7.2-9.1.2-5.4 3-8.9 7.2-8.9m23 18.1c-4.1 0-6.6-3.3-6.6-9s2.5-9.1 6.6-9.1c4.2 0 6.6 3.3 6.6 9.1.1 5.7-2.4 9-6.6 9m0-23.7c-7.7 0-12.5 5.6-12.5 14.7 0 8.9 4.8 14.5 12.5 14.5 7.8 0 12.7-5.6 12.7-14.5 0-9-4.9-14.7-12.7-14.7m47 .3c-3.7 0-6.3 1.4-8 4.3l-.4.6-.3-.7c-1.3-2.9-3.7-4.3-7.4-4.3-3.4 0-6.1 1.2-7.9 3.6l-.7.9v-3.6c0-.2-.2-.4-.4-.4h-5.3c-.2 0-.4.2-.4.4v26.9c0 .2.2.4.4.4h5.3c.2 0 .4-.2.4-.4V33.7c1-2.9 3.1-4.5 5.9-4.5 3.5 0 5.2 2 5.2 6.2v15.9c0 .2.2.4.4.4h5.3c.2 0 .4-.2.4-.4V33.4c1.1-2.8 2.8-4.2 5.3-4.2 4.5 0 5.1 3.3 5.1 6.2v15.9c0 .2.2.4.4.4h5.3c.2 0 .4-.2.4-.4V34.1c0-7.2-2.9-10.5-9-10.5m33.9 13.5l10-12.2c.1-.1.1-.2.1-.2v-.1c0-.2-.2-.4-.4-.4h-6.4c-.1 0-.2.1-.3.1l-9.3 12.3V14.3c0-.2-.2-.4-.4-.4h-5.3c-.2 0-.4.2-.4.4v37c0 .2.2.4.4.4h5.3c.2 0 .4-.2.4-.4V38.6l9.6 12.9c.1.1.2.2.3.2h6.8c.2 0 .4-.2.4-.4v-.1c0-.1 0-.2-.1-.2l-10.7-13.9zm28.2-13.5c-3.3 0-6.4 1.4-8.2 3.7l-.7.9V14.3c0-.2-.2-.4-.4-.4h-5.3c-.2 0-.4.2-.4.4v37c0 .2.2.4.4.4h5.3c.2 0 .4-.2.4-.4V34.2c.8-2.3 2.9-5 6.2-5 3.6 0 5.3 2.1 5.3 6.4v15.7c0 .2.2.4.4.4h5.3c.2 0 .4-.2.4-.4v-17c0-7.1-2.9-10.7-8.7-10.7m-46.9 22.6c-1.6 0-2.9 1.3-2.9 2.9s1.3 2.9 2.9 2.9 2.8-1.3 2.8-2.9c0-1.7-1.3-2.9-2.8-2.9m-102.9 0c-1.6 0-2.9 1.3-2.9 2.9s1.3 2.9 2.9 2.9 2.8-1.3 2.8-2.9c0-1.7-1.2-2.9-2.8-2.9M51 .7C23.2.7.7 23.3.7 51c0 9.4 2.6 18.5 7.5 26.5.1.1.1.2.2.3.2.3.3.5.5.8l.1.1a.55.55 0 0 0 .5.3h21.3a.65.65 0 0 0 .6-.6V54.8a.65.65 0 0 0-.6-.6h-4.5L51 29l24.7 25.2h-4.5a.65.65 0 0 0-.6.6v23.6a.65.65 0 0 0 .6.6h14.5c-8.5 10.6-21.2 16.7-34.8 16.7-10.1 0-19.7-3.3-27.6-9.6-.1-.1-.2-.1-.4-.1h-6.8c-.2 0-.5.1-.6.4-.1.2 0 .5.1.7 9.4 9.3 22 14.4 35.2 14.4 18.9 0 36-10.4 44.7-27.2.1-.2.1-.4 0-.6a.55.55 0 0 0-.5-.3H76.2V60h7.1a.55.55 0 0 0 .5-.3c.3-.6 1-2.3 1-4.2 0-1.4-.5-2.9-1.1-4.3-.3-.7-.5-1.3-.7-1.9-.2-.8-.3-2.1-.3-3.8 0-.2-.1-.5-.3-.6s-.5-.1-.6.1c-.6.5-1.2 1.1-1.5 1.6-.9 1.3-1.2 2.8-1.3 3L55.2 25.3c-.1-.8-.3-1.7-.5-2.6-.3-1.5-.9-3.4-1.1-4.2l-2.1-7.1c-.1-.3-.3-.4-.6-.4s-.5.2-.6.4l-2.2 7.1c0 .1-.9 2.9-1.3 4.8-.1.7-.3 1.4-.4 2.1L22.6 49.7c-.1-.3-.5-1.8-1.3-3-.4-.6-.9-1.1-1.5-1.6-.2-.1-.4-.2-.6-.1s-.3.3-.3.6c0 1.7-.1 3-.3 3.8-.2.6-.4 1.3-.7 1.9-.5 1.4-1.1 2.8-1.1 4.2 0 1.8.7 3.5 1 4.2a.55.55 0 0 0 .5.3h7.1v13.4H12.3C8.4 66.7 6.4 59 6.4 51.2c0-24.6 20-44.6 44.6-44.6s44.6 20 44.6 44.6c0 4.9-.8 9.7-2.4 14.4-.1.2 0 .4.1.5a.55.55 0 0 0 .5.3h4.8c.3 0 .5-.2.6-.4 1.5-4.8 2.2-9.8 2.2-14.8C101.3 23.2 78.7.7 51 .7" fill="#88c940"/><g fill="#fff"><path d="M127.4 82.5c0 .3.3.5.8.5h.9v1.5H127c-1.1 0-1.6-.4-1.6-1.1v-7.6l-.9-1.1-.4-.5c-.2-.2-.2-.4-.2-.5 0-.2.1-.3.2-.5l.4-.5.8-1.1h2.7v1.5h-2.7l2.1 2.4v7zm14-10.9v1.5h-9.7v-1.5h9.7zm-7.7 9.5c.5-.6 1.2-.9 2-.9h1.4v1.5H136c-.7 0-1.3.2-1.6.5s-.5.8-.7 1.4v.9h-2V78c0-2.3 1.6-3.5 4.8-3.5s4.8 1.2 4.8 3.5v6.5h-2V78c0-1.3-.9-2-2.8-2s-2.8.7-2.8 2v3.1zm26.1-6c0-.7-.2-1.2-.6-1.5s-1-.5-1.9-.5c-.8 0-1.4.2-1.9.5-.4.3-.6.8-.6 1.5v6c0 1-.4 1.8-1.1 2.5s-1.9 1-3.5 1-2.8-.3-3.5-1-1.1-1.5-1.1-2.5v-5.2l-.9-1.1-.4-.5c-.2-.2-.2-.4-.2-.5 0-.2.1-.3.2-.5l.4-.5.8-1.1h2.7v1.5h-2.7l2.1 2.4v5.6c0 .7.2 1.2.6 1.5s1.1.5 1.9.5c.9 0 1.5-.2 1.9-.5s.6-.8.6-1.5v-6c0-1 .4-1.8 1.1-2.5s1.8-1 3.4-1c1.5 0 2.7.3 3.4.9.8.6 1.1 1.5 1.1 2.6v9.4h-2v-9.5h.2z"/><use xlink:href="#C"/><path d="M171 65.7c.4 0 .8.1 1.2.3a1.96 1.96 0 0 1 .9.9c.2.4.3.8.3 1.2s-.1.8-.3 1.2a1.96 1.96 0 0 1-.9.9c-.4.2-.8.3-1.2.3s-.8-.1-1.2-.3a1.96 1.96 0 0 1-.9-.9c-.2-.4-.3-.8-.3-1.2s.1-.8.3-1.2a1.96 1.96 0 0 1 .9-.9c.4-.2.8-.3 1.2-.3zm-.4 1.6a.78.78 0 0 0-.4.4c-.1.2-.1.3-.1.5a.9.9 0 0 0 .1.5.78.78 0 0 0 .4.4.9.9 0 0 0 .5.1c.2 0 .3 0 .5-.1a.78.78 0 0 0 .4-.4c.1-.2.1-.3.1-.5s0-.3-.1-.5a.78.78 0 0 0-.4-.4c-.2-.1-.3-.1-.5-.1-.2-.1-.4 0-.5.1z"/><use xlink:href="#D"/><path d="M184.5 67.3c0-1.4 1-2 2.9-2h.5v1.4h-.5c-.8 0-1.2.2-1.2.6 0 .5.9.8 2.6.8 1.9 0 2.8-1 2.8-2.9h1.6c0 2.9-1.5 4.3-4.4 4.3s-4.3-.8-4.3-2.2zm9.7 8.6l-1.1-1.1-.6-.5c-.2-.2-.3-.4-.3-.6s.1-.3.2-.4l.4-.5.8-1.1h2.7v1.5h-2.7l2.7 2.4v7.7c0 .9-.3 1.3-1 1.3h-1c-1.1 0-1.7-.9-1.7-2.7 0-1.4.6-2.1 1.7-2.1v-3.9h-.1zm0 5.3c-.3 0-.5.2-.5.7 0 .8.2 1.2.5 1.2v-1.9zm21.8 2.2c0 .7-.5 1.1-1.6 1.1h-1.9V83c1 0 1.5-.2 1.5-.5v-3.7h-5.6v4.6c0 .7-.5 1.1-1.6 1.1h-1.9V83c1 0 1.5-.2 1.5-.5v-6.7l-.9-1.1-.4-.5c-.2-.2-.2-.4-.2-.5 0-.2.1-.3.2-.5l.4-.5.8-1.1h2.7v1.5h-2.7l2.1 2.4v1.8h5.6v-1.5l-1.1-1.1-.6-.5c-.2-.2-.3-.4-.3-.6s.1-.3.2-.4l.4-.5.8-1.1h2.7v1.5h-2.7l2.7 2.4v7.9h-.1zm4.3-7.3l-.3-.4c-.5-.7-.8-1.1-.8-1.4s.1-.5.2-.7l1.5-2h9.1v1.5h-9l-.2.3-.1.1c0 .2.2.6.7 1.2l.9 1v5.4c0 1.3.9 2 2.8 2s2.8-.7 2.8-2v-1.9c-1.5 0-2.3-.7-2.3-2.1s.8-2.1 2.3-2.1c1.4 0 2 .4 2 1.3v4.9c0 2.3-1.6 3.5-4.8 3.5s-4.8-1.2-4.8-3.5v-5.1zm7.6 1.5v-1.3c-.7 0-1 .2-1 .7 0 .4.4.6 1 .6zm20.5-1.7l-1.1-1.1-.6-.5c-.2-.2-.3-.4-.3-.6s.1-.3.2-.4l.4-.5.8-1.1h2.7v1.5h-2.7l2.7 2.4v5.6c0 2.3-1.5 3.5-4.5 3.5s-4.5-1.2-4.5-3.5v-6c0-1.3-.9-2-2.6-2s-2.6.7-2.6 2v4.6c1.5 0 2.3.7 2.3 2.1 0 1.8-.8 2.7-2.3 2.7-1.4 0-2-.4-2-1.3v-8.1c0-2.3 1.5-3.5 4.6-3.5s4.6 1.2 4.6 3.5v6c0 1.3.8 2 2.5 2s2.5-.7 2.5-2v-5.3h-.1zm-12.1 5.3v1.9c.7 0 1-.4 1-1.2 0-.5-.3-.7-1-.7zm24.2-2c-3.8-.5-5.8-1.9-5.8-4.1 0-1 .4-1.8 1.1-2.5s2-1 3.8-1 3.1.3 3.8 1 1.1 1.4 1.1 2.3v.4c0 1-.5 1.6-1.5 1.6h-1.6v-1.6c.7 0 1.1-.1 1.1-.4 0-.5-.2-.9-.6-1.3-.4-.3-1.1-.5-2.2-.5-1 0-1.8.2-2.2.5s-.6.8-.6 1.5c0 1.4 1.3 2.2 3.8 2.6 2.6.4 3.8 1.3 3.8 2.9v.9c0 .9-.3 1.7-.8 2.2-.5.6-1.3.8-2.2.8s-1.7-.3-2.2-1c-.4-.5-.8-.9-1.1-1-.3-.2-.8-.3-1.3-.3v2.3h-2v-5.4h2v1.6c1.3 0 2.2.2 2.8.6s1 .8 1.2 1.1.5.5.6.5c.2 0 .4-.1.6-.3s.4-.6.4-1.1v-1c-.1-.7-.7-1.1-2-1.3zm10.3 7.7c0 .5.2.9.6 1.1s.9.3 1.5.3 1.1-.1 1.5-.3.6-.6.6-1.1v-1.3h2v1.3c0 1.1-.4 1.9-1.3 2.3s-1.8.7-2.9.7-2-.2-2.9-.7-1.3-1.2-1.3-2.3V75.8l-.9-1.1-.4-.5c-.2-.2-.2-.4-.2-.5 0-.2.1-.3.2-.5l.4-.5.8-1.1h2.7v1.5h-2.7l2.1 2.4v11.4h.2z"/><use xlink:href="#C" x="108.9"/><use xlink:href="#D" x="108.9"/><path d="M303.1 75.9l-1.1-1.1-.6-.5c-.2-.2-.3-.4-.3-.6s.1-.3.2-.4l.4-.5.8-1.1h2.7v1.5h-2.7l2.7 2.4V87c0 1.1-.4 1.9-1.3 2.3s-1.8.7-2.9.7-2-.2-2.9-.7c-.8-.5-1.2-1.2-1.2-2.3v-1.3h2V87c0 .5.2.9.6 1.1s.9.3 1.5.3 1.1-.1 1.5-.3.7-.6.7-1.1V75.9h-.1zm31.5 4.4c1.5 1.6 3.9 3.1 6.2 3.8-.4.3-.9 1-1.1 1.4-2.2-.8-4.5-2.4-6.1-4.3v4.7h-1.7v-4.6c-1.6 1.8-3.9 3.3-6.1 4.2-.2-.4-.7-1-1.1-1.4 2.3-.7 4.7-2.2 6.2-3.8h-4.4v-5.9h5.3v-1.3h-6.6v-1.5h6.6V70h1.7v1.7h6.7v1.5h-6.7v1.3h5.6v5.9h-4.5v-.1zm-6.5-1.3h3.8v-3.3h-3.8V79zm1.8-3c.5.7 1 1.6 1.2 2.3l-1.2.4c-.2-.6-.6-1.6-1.2-2.3l1.2-.4zm3.7-.3V79h4.1v-3.3h-4.1zm.8 2.7c.4-.7.9-1.7 1.1-2.4l1.3.4-1.4 2.4-1-.4zm14.8 1.6c.6-.3 1.2-.5 1.9-.8l.3 1.5-5.4 2.5-.5-1.6c.6-.2 1.4-.5 2.2-.9v-5h-1.9v-1.5h1.9v-3.9h1.5v3.9h1.7v1.5h-1.7V80zm7.9-6.1v1.5h3.9v8.8c0 .7-.1 1.2-.6 1.4s-1.2.3-2.1.3c-.1-.4-.3-1.1-.5-1.5h1.4c.2 0 .3-.1.3-.3v-1.8h-2.3v3.5h-1.6v-3.5h-2.2v3.6h-1.5V75.3h3.7v-1.5H351v-1.5h4.5V70h1.6v2.4h2.8c-.5-.5-1.4-1.1-2.1-1.6l.9-.9 2.3 1.6-.8.9h1.4v1.5h-4.5zm-3.8 2.8v1.5h2.2v-1.5h-2.2zm2.2 4.3v-1.5h-2.2V81h2.2zm1.6-4.3v1.5h2.3v-1.5h-2.3zm2.3 4.3v-1.5h-2.3V81h2.3zm18.9-2c1.2.9 2.7 1.8 4 2.4-.3.3-.8.8-1 1.2-.7-.4-1.5-.9-2.3-1.5v1.1h-3.8V86h-1.5v-3.8h-3.8v-.9c-.8.6-1.7 1.1-2.5 1.4-.2-.3-.7-.9-1-1.1 1.4-.5 3.1-1.5 4.3-2.5h-3.8v-1.3h4.6v-.9H369v-1h2.5V75h-2.9v-.6h-1.4v-3.1h6.3c-.2-.3-.3-.7-.5-1l1.6-.5.7 1.5h6.3v3.1h-1.5v.6h-2.6v.8h2.4v1h-2.4v.9h4.5V79h-3.7zm-5.6 3.9c-.9 1-2.5 2-3.8 2.5-.2-.3-.7-.9-1-1.2 1.3-.4 2.8-1.1 3.6-1.8l1.2.5zm-1.3-9V73h1.5v.9h3.1V73h1.5v.9h2.6v-1.2h-11.5v1.2h2.8zm7.2 7c-.8-.6-1.6-1.2-2.2-1.9h-4c-.6.6-1.3 1.3-2.1 1.9h3.3v-1.4h1.5v1.4h3.5zm-5.7-5.1h3.1V75h-3.1v.8zm0 1.9h3.1v-.9h-3.1v.9zm3.9 4.7c1.2.5 2.8 1.4 3.7 2l-.9 1c-.8-.6-2.4-1.5-3.6-2.1l.8-.9zm18.8-2.5c-.1.4-.1.8-.2 1.2h5.8v.6c-.2 2.3-.5 3.3-.9 3.7-.3.3-.7.4-1.2.5s-1.3 0-2.2 0c0-.4-.2-1-.4-1.4.8.1 1.6.1 2 .1.3 0 .5 0 .6-.1.2-.2.4-.8.6-2.1H395c-.7 1.6-2 2.8-4.5 3.6-.1-.4-.6-1-.9-1.2 3.3-.9 4.1-2.5 4.4-4.8h-3.4c-.2 2.2-.9 4.5-2.2 6.1-.2-.3-.9-1-1.2-1.1 1.8-2.3 2-5.6 2-8.1v-5.5c3.9-.2 8.4-.7 11-1.3l1.2 1.2c-2.9.6-7 1.1-10.7 1.3v.8h11v3.9h-11c0 .5 0 .9-.1 1.4h5c-.2-.4-.4-.8-.6-1.1l1.6-.4c.3.4.6 1 .8 1.4h5.4v1.3h-7.2zm-4.9-5.4v1.4h9.4v-1.4h-9.4zm22.7 4.7l.4 1.4-5.3 2.4-.6-1.6c.6-.2 1.4-.5 2.3-.9v-5h-2V74h2v-3.8h1.5V74h1.8v1.5h-1.8v4.4l1.7-.7zm7.9 4.9c1 0 1.1-.4 1.3-2.3.4.2 1 .5 1.4.6-.2 2.4-.7 3.2-2.6 3.2h-4c-2.1 0-2.7-.5-2.7-2.6v-5l-1.2.5-.6-1.4 1.8-.8v-4.6h1.5v4l1.9-.8V70h1.5v4.1l2.3-1 1.2.4-.1.3c-.1 2.4-.4 5.6-.8 7.6L421 81c.3-1.5.5-3.9.5-6l-1.8.8V82h-1.5v-5.6l-1.9.8v5.7c0 1 .2 1.2 1.3 1.2h3.7zm22.9-6.1h-12.3v.8c0 2.1-.3 5.2-1.9 7.2-.3-.3-1-.9-1.3-1.1 1.4-1.8 1.5-4.3 1.5-6.1v-2.4h3.7c-.3-.7-.8-1.6-1.4-2.4l1.4-.6c.6.7 1.2 1.7 1.5 2.4l-1.2.6h4.3c.5-.8 1-2 1.3-2.8l1.8.6-1.5 2.3h4V78h.1zm-.4-4.5H430V72h6.2c-.2-.5-.6-1.1-.9-1.6l1.6-.4c.5.6 1 1.4 1.2 2h5.6v1.5h.1zm20.9 10.4c0 1-.2 1.5-.9 1.7-.6.3-1.6.3-3.2.3-.1-.5-.4-1.2-.6-1.6 1.1.1 2.3.1 2.6 0 .3 0 .5-.1.5-.5V72.5H452v10.3c1.1-1.1 2-2.6 2.6-4.4l-2.3-2.9.9-.9 1.9 2.3c.3-1.1.5-2.2.7-3.4l1.4.2-1 4.6 1.6 2.4-1 1.1c-.3-.6-.7-1.2-1.2-1.9-.6 1.5-1.4 2.9-2.4 3.9-.2-.2-.8-.6-1.2-.8v2.9h-1.6V71h14.3v12.9zm-3.1-1.6c-.3-.7-.7-1.4-1.2-2.3-.6 1.6-1.4 2.9-2.5 4-.3-.2-.9-.7-1.2-.9 1.2-1.1 2.1-2.7 2.8-4.6l-2.2-2.9 1-.9c.6.6 1.2 1.4 1.8 2.1l.6-3.3 1.4.2c-.2 1.7-.5 3.2-1 4.6l1.7 2.9-1.2 1.1z"/></g></g><defs ><path id="B" d="M180.7 39.1v6.1l-.1.1c-1.2 1.4-3.1 2.2-5.3 2.2-2.6 0-4.2-1.6-4.2-4.1 0-2.8 2.5-4.7 6.5-4.7 1 0 2 .1 2.8.3l.3.1zm-4.5-15.5c-2.7 0-5.9.6-8.7 1.7-.2.1-.3.3-.2.4l.9 4.1c0 .1.1.2.2.3s.2.1.3 0c2.1-.8 4.5-1.3 6.5-1.3 3.8 0 5.6 1.7 5.6 5.2v1l-.4-.1a16.28 16.28 0 0 0-3.1-.3c-7.7 0-12.3 3.6-12.3 9.6 0 5.1 3 8.1 8.3 8.1 2.7 0 5.1-.8 7-2.5l.6-.5v2.1c0 .2.2.4.4.4h5.2c.2 0 .4-.2.4-.4V34.1c-.2-6.7-3.9-10.5-10.7-10.5z"/><path id="C" d="M175.2 79.5v1.6c0 2.3-1.4 3.5-4.2 3.5s-4.2-1.2-4.2-3.5v-1.7h2v1.7c0 1.3.7 2 2.2 2s2.2-.7 2.2-2v-1.7l-1.3-.2c-3.8-.5-5.8-1.9-5.8-4.1 0-1 .4-1.8 1.1-2.5s2-1 3.8-1 3.1.3 3.8 1 1.1 1.4 1.1 2.3v.5h-2v-.5c0-.5-.2-.9-.6-1.3-.4-.3-1.1-.5-2.2-.5-1 0-1.8.2-2.2.5s-.6.8-.6 1.5c0 1.4 1.3 2.2 3.8 2.6l1.2.2c.1-.2.2-.3.3-.5.3-.3.6-.4.9-.4.4 0 .7.1 1 .4s.4.6.4 1-.1.7-.4.9c-.1.1-.2.2-.3.2z"/><path id="D" d="M180.2 74.6c0-.8.3-1.5.8-2.1s1.1-.9 1.8-.9 1.4.4 2.2 1.3c.8-.9 1.5-1.3 2.2-1.3s1.3.3 1.8.9.8 1.3.8 2.1v9.9h-2v-9.9c0-.9-.3-1.4-.8-1.4-.4 0-.8.3-1.4 1-.2.2-.4.3-.6.3s-.4-.1-.6-.3c-.6-.7-1-1-1.4-1-.5 0-.8.5-.8 1.4v5.1c1.5 0 2.3.7 2.3 2.1 0 1.8-.8 2.7-2.3 2.7-1.4 0-2-.4-2-1.3v-8.6zm2 6.6v1.9c.7 0 1-.4 1-1.2 0-.5-.3-.7-1-.7z"/></defs></svg>